<svg xmlns="http://www.w3.org/2000/svg" viewBox="0 0 32 32"><path fill-rule="evenodd" clip-rule="evenodd" d="M16 28.2524H14.6667C14.6667 27.4486 14.2188 26.5893 13.1724 25.5209C12.3408 24.6718 11.2934 23.8465 10.1183 22.9205L10.1182 22.9205L10.1179 22.9202C9.80945 22.6771 9.49225 22.4272 9.16784 22.1681C6.22317 19.8159 2.66667 16.7168 2.66667 12.0002C2.66667 9.37122 3.51863 7.28297 4.92473 5.85435C6.32195 4.43474 8.18267 3.7545 10.028 3.79327C12.3746 3.84258 14.6311 5.03664 16 7.2216C17.3689 5.03664 19.6254 3.84257 21.972 3.79326C23.8173 3.75448 25.6781 4.43472 27.0753 5.85433C28.4814 7.28295 29.3333 9.37121 29.3333 12.0002C29.3333 16.7168 25.7768 19.8159 22.8322 22.1681C22.5077 22.4273 22.1904 22.6773 21.8819 22.9203L21.8818 22.9205L21.8817 22.9205C20.7066 23.8465 19.6592 24.6718 18.8276 25.5209C17.7812 26.5893 17.3333 27.4486 17.3333 28.2524H16Z"/></svg>
